<mxfile host="Electron" agent="Mozilla/5.0 (X11; Linux x86_64) AppleWebKit/537.36 (KHTML, like Gecko) draw.io/27.0.9 Chrome/134.0.6998.205 Electron/35.4.0 Safari/537.36" version="27.0.9">
  <diagram name="VESC and IMU Sensor Data Acquisition Loop" id="vesc-imu-loop">
    <mxGraphModel dx="1722" dy="1003" grid="1" gridSize="10" guides="1" tooltips="1" connect="1" arrows="1" fold="1" page="1" pageScale="1" pageWidth="827" pageHeight="1169" background="none" math="0" shadow="0">
      <root>
        <mxCell id="0" />
        <mxCell id="1" parent="0" />
        <mxCell id="j_JZVtlXSnlJvMZP3zWs-1" value="" style="ellipse;html=1;shape=startState;fillColor=#000000;strokeColor=#ff0000;" vertex="1" parent="1">
          <mxGeometry x="230" y="365" width="50" height="50" as="geometry" />
        </mxCell>
        <mxCell id="j_JZVtlXSnlJvMZP3zWs-2" value="" style="edgeStyle=orthogonalEdgeStyle;html=1;verticalAlign=bottom;endArrow=open;endSize=8;strokeColor=#ff0000;rounded=0;" edge="1" parent="1" source="j_JZVtlXSnlJvMZP3zWs-1" target="j_JZVtlXSnlJvMZP3zWs-10">
          <mxGeometry relative="1" as="geometry">
            <mxPoint x="347.5" y="390" as="targetPoint" />
          </mxGeometry>
        </mxCell>
        <mxCell id="j_JZVtlXSnlJvMZP3zWs-3" value="The Longboarder Rider has initiated the riding process." style="shape=note;whiteSpace=wrap;html=1;backgroundOutline=1;darkOpacity=0.05;" vertex="1" parent="1">
          <mxGeometry x="170" y="180" width="170" height="90" as="geometry" />
        </mxCell>
        <mxCell id="j_JZVtlXSnlJvMZP3zWs-4" style="edgeStyle=orthogonalEdgeStyle;rounded=0;orthogonalLoop=1;jettySize=auto;html=1;endArrow=none;startFill=0;entryX=0.727;entryY=0.06;entryDx=0;entryDy=0;entryPerimeter=0;" edge="1" parent="1">
          <mxGeometry relative="1" as="geometry">
            <mxPoint x="260.0000000000001" y="368" as="targetPoint" />
            <mxPoint x="268.6500000000002" y="270" as="sourcePoint" />
          </mxGeometry>
        </mxCell>
        <mxCell id="j_JZVtlXSnlJvMZP3zWs-5" value="&lt;font style=&quot;color: rgb(0, 0, 0);&quot;&gt;Start the EL-Sensor-Data Thread&lt;/font&gt;" style="rounded=1;whiteSpace=wrap;html=1;arcSize=40;fontColor=#000000;fillColor=#ffffc0;strokeColor=#ff0000;labelBackgroundColor=none;" vertex="1" parent="1">
          <mxGeometry x="930" y="300" width="120" height="50" as="geometry" />
        </mxCell>
        <mxCell id="j_JZVtlXSnlJvMZP3zWs-6" value="&lt;font style=&quot;color: rgb(0, 0, 0);&quot;&gt;Start the Rider-Paddling-Detection Thread&lt;/font&gt;" style="rounded=1;whiteSpace=wrap;html=1;arcSize=40;fontColor=#000000;fillColor=#ffffc0;strokeColor=#ff0000;labelBackgroundColor=none;" vertex="1" parent="1">
          <mxGeometry x="930" y="384.38" width="120" height="50" as="geometry" />
        </mxCell>
        <mxCell id="j_JZVtlXSnlJvMZP3zWs-8" value="&lt;font style=&quot;color: rgb(0, 0, 0);&quot;&gt;Start the Motor-Control Thread&lt;/font&gt;" style="rounded=1;whiteSpace=wrap;html=1;arcSize=40;fontColor=#000000;fillColor=#ffffc0;strokeColor=#ff0000;labelBackgroundColor=none;" vertex="1" parent="1">
          <mxGeometry x="930" y="460" width="120" height="50" as="geometry" />
        </mxCell>
        <mxCell id="j_JZVtlXSnlJvMZP3zWs-10" value="&lt;font style=&quot;color: rgb(0, 0, 0);&quot;&gt;Initialize the VESC and IMU state data buffers&lt;/font&gt;" style="rounded=1;whiteSpace=wrap;html=1;arcSize=40;fontColor=#000000;fillColor=#ffffc0;strokeColor=#ff0000;labelBackgroundColor=none;" vertex="1" parent="1">
          <mxGeometry x="370" y="365" width="130" height="50" as="geometry" />
        </mxCell>
        <mxCell id="j_JZVtlXSnlJvMZP3zWs-11" value="&lt;font style=&quot;color: rgb(0, 0, 0);&quot;&gt;Initialize the Motor-Control Semaphore&lt;/font&gt;" style="rounded=1;whiteSpace=wrap;html=1;arcSize=40;fontColor=#000000;fillColor=#ffffc0;strokeColor=#ff0000;labelBackgroundColor=none;" vertex="1" parent="1">
          <mxGeometry x="598" y="365" width="130" height="50" as="geometry" />
        </mxCell>
        <mxCell id="j_JZVtlXSnlJvMZP3zWs-12" value="" style="edgeStyle=orthogonalEdgeStyle;html=1;verticalAlign=bottom;endArrow=open;endSize=8;strokeColor=#ff0000;rounded=0;exitX=1;exitY=0.5;exitDx=0;exitDy=0;entryX=0;entryY=0.5;entryDx=0;entryDy=0;" edge="1" parent="1" source="j_JZVtlXSnlJvMZP3zWs-10" target="j_JZVtlXSnlJvMZP3zWs-11">
          <mxGeometry relative="1" as="geometry">
            <mxPoint x="620.5" y="389.58000000000004" as="targetPoint" />
            <mxPoint x="507.5" y="389.58000000000004" as="sourcePoint" />
          </mxGeometry>
        </mxCell>
        <mxCell id="j_JZVtlXSnlJvMZP3zWs-19" style="edgeStyle=orthogonalEdgeStyle;rounded=0;orthogonalLoop=1;jettySize=auto;html=1;fontColor=#FF3333;strokeColor=#FF0000;exitX=0.882;exitY=0.771;exitDx=0;exitDy=0;exitPerimeter=0;" edge="1" parent="1" source="j_JZVtlXSnlJvMZP3zWs-13" target="j_JZVtlXSnlJvMZP3zWs-5">
          <mxGeometry relative="1" as="geometry" />
        </mxCell>
        <mxCell id="j_JZVtlXSnlJvMZP3zWs-20" style="edgeStyle=orthogonalEdgeStyle;rounded=0;orthogonalLoop=1;jettySize=auto;html=1;entryX=0;entryY=0.5;entryDx=0;entryDy=0;strokeColor=#FF0000;" edge="1" parent="1" source="j_JZVtlXSnlJvMZP3zWs-13" target="j_JZVtlXSnlJvMZP3zWs-6">
          <mxGeometry relative="1" as="geometry" />
        </mxCell>
        <mxCell id="j_JZVtlXSnlJvMZP3zWs-22" style="edgeStyle=orthogonalEdgeStyle;rounded=0;orthogonalLoop=1;jettySize=auto;html=1;entryX=0;entryY=0.5;entryDx=0;entryDy=0;exitX=0.162;exitY=0.688;exitDx=0;exitDy=0;exitPerimeter=0;strokeColor=#FF0000;" edge="1" parent="1" source="j_JZVtlXSnlJvMZP3zWs-13" target="j_JZVtlXSnlJvMZP3zWs-8">
          <mxGeometry relative="1" as="geometry" />
        </mxCell>
        <mxCell id="j_JZVtlXSnlJvMZP3zWs-13" value="" style="shape=line;html=1;strokeWidth=6;strokeColor=#ff0000;rotation=-90;" vertex="1" parent="1">
          <mxGeometry x="728" y="404.38" width="222.25" height="10" as="geometry" />
        </mxCell>
        <mxCell id="j_JZVtlXSnlJvMZP3zWs-16" value="" style="edgeStyle=orthogonalEdgeStyle;html=1;verticalAlign=bottom;endArrow=open;endSize=8;strokeColor=#ff0000;rounded=0;exitX=1;exitY=0.5;exitDx=0;exitDy=0;entryX=0.589;entryY=0.188;entryDx=0;entryDy=0;entryPerimeter=0;" edge="1" parent="1" source="j_JZVtlXSnlJvMZP3zWs-11" target="j_JZVtlXSnlJvMZP3zWs-13">
          <mxGeometry relative="1" as="geometry">
            <mxPoint x="875.5" y="390" as="targetPoint" />
            <mxPoint x="767.5" y="390" as="sourcePoint" />
          </mxGeometry>
        </mxCell>
        <mxCell id="j_JZVtlXSnlJvMZP3zWs-17" value="&lt;font color=&quot;#000000&quot;&gt;Wait for Rider&lt;/font&gt;&lt;div&gt;&lt;font color=&quot;#000000&quot;&gt;to end riding&lt;/font&gt;&lt;span style=&quot;color: rgb(0, 0, 0); background-color: transparent;&quot;&gt;&amp;nbsp;&lt;/span&gt;&lt;/div&gt;" style="rhombus;whiteSpace=wrap;html=1;fontColor=#000000;fillColor=#ffffc0;strokeColor=#ff0000;labelBackgroundColor=none;" vertex="1" parent="1">
          <mxGeometry x="1245" y="359.38" width="100" height="100" as="geometry" />
        </mxCell>
        <mxCell id="j_JZVtlXSnlJvMZP3zWs-18" value="" style="ellipse;html=1;shape=endState;fillColor=#000000;strokeColor=#ff0000;" vertex="1" parent="1">
          <mxGeometry x="1270" y="700" width="50" height="50" as="geometry" />
        </mxCell>
        <mxCell id="j_JZVtlXSnlJvMZP3zWs-41" style="edgeStyle=orthogonalEdgeStyle;rounded=0;orthogonalLoop=1;jettySize=auto;html=1;entryX=0;entryY=0.5;entryDx=0;entryDy=0;strokeColor=#FF0000;" edge="1" parent="1" source="j_JZVtlXSnlJvMZP3zWs-25" target="j_JZVtlXSnlJvMZP3zWs-17">
          <mxGeometry relative="1" as="geometry" />
        </mxCell>
        <mxCell id="j_JZVtlXSnlJvMZP3zWs-25" value="" style="shape=line;html=1;strokeWidth=6;strokeColor=#ff0000;rotation=-90;" vertex="1" parent="1">
          <mxGeometry x="1040.005" y="403.755" width="222.25" height="10" as="geometry" />
        </mxCell>
        <mxCell id="j_JZVtlXSnlJvMZP3zWs-28" style="edgeStyle=orthogonalEdgeStyle;rounded=0;orthogonalLoop=1;jettySize=auto;html=1;fontColor=#FF3333;strokeColor=#FF0000;exitX=1;exitY=0.5;exitDx=0;exitDy=0;entryX=0.875;entryY=0.604;entryDx=0;entryDy=0;entryPerimeter=0;" edge="1" parent="1" source="j_JZVtlXSnlJvMZP3zWs-5" target="j_JZVtlXSnlJvMZP3zWs-25">
          <mxGeometry relative="1" as="geometry">
            <mxPoint x="1091" y="320" as="sourcePoint" />
            <mxPoint x="1179" y="321" as="targetPoint" />
          </mxGeometry>
        </mxCell>
        <mxCell id="j_JZVtlXSnlJvMZP3zWs-29" style="edgeStyle=orthogonalEdgeStyle;rounded=0;orthogonalLoop=1;jettySize=auto;html=1;entryX=0.523;entryY=0.437;entryDx=0;entryDy=0;strokeColor=#FF0000;exitX=0.99;exitY=0.402;exitDx=0;exitDy=0;exitPerimeter=0;entryPerimeter=0;" edge="1" parent="1" source="j_JZVtlXSnlJvMZP3zWs-6" target="j_JZVtlXSnlJvMZP3zWs-25">
          <mxGeometry relative="1" as="geometry">
            <mxPoint x="1060" y="404.38" as="sourcePoint" />
            <mxPoint x="1146" y="404.38" as="targetPoint" />
          </mxGeometry>
        </mxCell>
        <mxCell id="j_JZVtlXSnlJvMZP3zWs-30" style="edgeStyle=orthogonalEdgeStyle;rounded=0;orthogonalLoop=1;jettySize=auto;html=1;entryX=0.155;entryY=0.437;entryDx=0;entryDy=0;exitX=1;exitY=0.5;exitDx=0;exitDy=0;strokeColor=#FF0000;entryPerimeter=0;" edge="1" parent="1" source="j_JZVtlXSnlJvMZP3zWs-8" target="j_JZVtlXSnlJvMZP3zWs-25">
          <mxGeometry relative="1" as="geometry">
            <mxPoint x="1050" y="484.58" as="sourcePoint" />
            <mxPoint x="1139" y="484.58" as="targetPoint" />
            <Array as="points">
              <mxPoint x="1080" y="485" />
            </Array>
          </mxGeometry>
        </mxCell>
        <mxCell id="j_JZVtlXSnlJvMZP3zWs-35" value="yes" style="edgeStyle=orthogonalEdgeStyle;html=1;align=left;verticalAlign=top;endArrow=open;endSize=8;strokeColor=#ff0000;rounded=0;exitX=0.5;exitY=1;exitDx=0;exitDy=0;entryX=0.5;entryY=0;entryDx=0;entryDy=0;" edge="1" parent="1" source="j_JZVtlXSnlJvMZP3zWs-17" target="j_JZVtlXSnlJvMZP3zWs-36">
          <mxGeometry x="-1" relative="1" as="geometry">
            <mxPoint x="1295" y="570" as="targetPoint" />
            <mxPoint x="1294.58" y="480" as="sourcePoint" />
          </mxGeometry>
        </mxCell>
        <mxCell id="j_JZVtlXSnlJvMZP3zWs-36" value="&lt;font style=&quot;color: rgb(0, 0, 0);&quot;&gt;Terminate all CSF threads&lt;/font&gt;" style="rounded=1;whiteSpace=wrap;html=1;arcSize=40;fontColor=#000000;fillColor=#ffffc0;strokeColor=#ff0000;labelBackgroundColor=none;" vertex="1" parent="1">
          <mxGeometry x="1230" y="570" width="130" height="50" as="geometry" />
        </mxCell>
        <mxCell id="j_JZVtlXSnlJvMZP3zWs-37" value="" style="edgeStyle=orthogonalEdgeStyle;html=1;verticalAlign=bottom;endArrow=open;endSize=8;strokeColor=#ff0000;rounded=0;entryX=0.5;entryY=0;entryDx=0;entryDy=0;exitX=0.5;exitY=1;exitDx=0;exitDy=0;" edge="1" parent="1" source="j_JZVtlXSnlJvMZP3zWs-36" target="j_JZVtlXSnlJvMZP3zWs-18">
          <mxGeometry relative="1" as="geometry">
            <mxPoint x="1235" y="660" as="targetPoint" />
            <mxPoint x="1145" y="660" as="sourcePoint" />
          </mxGeometry>
        </mxCell>
        <mxCell id="j_JZVtlXSnlJvMZP3zWs-38" value="no" style="edgeStyle=orthogonalEdgeStyle;html=1;align=left;verticalAlign=bottom;endArrow=open;endSize=8;strokeColor=#ff0000;rounded=0;exitX=1;exitY=0.5;exitDx=0;exitDy=0;entryX=0.5;entryY=0;entryDx=0;entryDy=0;" edge="1" parent="1" source="j_JZVtlXSnlJvMZP3zWs-17" target="j_JZVtlXSnlJvMZP3zWs-17">
          <mxGeometry x="-1" relative="1" as="geometry">
            <mxPoint x="1355" y="250" as="targetPoint" />
            <mxPoint x="1365" y="409" as="sourcePoint" />
            <Array as="points">
              <mxPoint x="1395" y="409" />
              <mxPoint x="1395" y="310" />
              <mxPoint x="1295" y="310" />
            </Array>
          </mxGeometry>
        </mxCell>
      </root>
    </mxGraphModel>
  </diagram>
</mxfile>
